<svg width="512" height="512" viewBox="0 0 512 512" fill="none" xmlns="http://www.w3.org/2000/svg">
<g clip-path="url(#clip0)">
<path d="M454.122 180.501L509.418 98.917C512.055 95.027 512.716 90.126 511.203 85.676C509.691 81.226 506.182 77.742 501.721 76.263L320.721 16.263C314.308 14.138 307.267 16.56 303.521 22.181L256.001 93.46L208.482 22.18C204.735 16.559 197.694 14.137 191.281 16.262L10.281 76.262C5.82004 77.741 2.31004 81.225 0.798038 85.675C-0.713962 90.125 -0.0529623 95.026 2.58404 98.917L57.88 180.501L2.58504 262.085C-0.0519624 265.976 -0.712962 270.877 0.799038 275.327C2.31104 279.777 5.82104 283.261 10.282 284.74L61.001 301.552V421.501C61.001 427.958 65.132 433.689 71.257 435.731L251.193 495.709C254.208 496.729 257.564 496.798 260.793 495.715L440.744 435.731C446.869 433.689 451.001 427.957 451.001 421.501V301.552L501.721 284.739C506.182 283.26 509.692 279.776 511.203 275.326C512.716 270.876 512.055 265.975 509.418 262.084L454.122 180.501ZM322.138 48.339L473.459 98.501L429.961 162.677L279.375 112.482L322.138 48.339ZM38.543 98.5L189.864 48.338L232.626 112.481L82.041 162.676L38.543 98.5ZM38.544 262.501L82.041 198.325L232.627 248.52L189.865 312.663C164.343 304.203 55.83 268.232 38.544 262.501ZM241.001 460.689L91.001 410.689V311.497L191.281 344.739C197.653 346.851 204.711 344.478 208.482 338.821L241.001 290.043V460.689ZM256.001 224.689L123.435 180.5L256.001 136.312L388.567 180.5L256.001 224.689ZM421.001 410.689L271.001 460.689V290.042L303.521 338.821C307.294 344.481 314.353 346.85 320.721 344.739L421.001 311.497V410.689ZM322.138 312.664L279.375 248.521L429.961 198.326L473.459 262.503C470.879 263.357 326.6 311.173 322.138 312.664Z" fill="white"/>
</g>
<defs>
<clipPath id="clip0">
<rect width="512.001" height="512.001" fill="white"/>
</clipPath>
</defs>
</svg>
