<svg width="512" height="512" viewBox="0 0 512 512" fill="none" xmlns="http://www.w3.org/2000/svg">
<path d="M474.044 317.661L415.173 229.635C414.125 211.066 410.241 192.918 403.611 175.629C401.386 169.829 395.817 166 389.605 166H373.834V120C373.834 111.716 367.118 105 358.834 105H339.406C338.764 103.354 338.086 101.72 337.373 100.101L351.113 86.361C356.967 80.509 356.971 71.004 351.113 65.148L308.686 22.722C302.829 16.865 293.331 16.865 287.473 22.722L273.734 36.461C272.114 35.747 270.481 35.069 268.834 34.427V15C268.834 6.716 262.118 0 253.834 0H193.834C185.55 0 178.834 6.716 178.834 15V34.428C177.188 35.07 175.554 35.748 173.935 36.461L160.195 22.722C154.338 16.865 144.84 16.865 138.982 22.722L96.5559 65.147C90.7019 70.999 90.6979 80.504 96.5559 86.36L110.296 100.1C109.583 101.719 108.905 103.353 108.264 104.999H88.8349C80.5509 104.999 73.8349 111.715 73.8349 119.999V165.999H61.3349C55.1189 165.999 49.5469 169.833 47.3249 175.639C11.2959 269.809 59.6869 375.754 155.475 409.745V497C155.475 505.284 162.191 512 170.475 512H341.475C349.759 512 356.475 505.284 356.475 497V420H400.475C408.759 420 415.475 413.284 415.475 405V341H461.575C473.54 341 480.704 327.621 474.044 317.661V317.661ZM103.835 135H119.018C125.715 135 131.601 130.561 133.441 124.121C135.393 117.288 138.147 110.651 141.626 104.396C144.882 98.541 143.86 91.236 139.123 86.5L128.377 75.754L149.59 54.541L160.336 65.286C165.072 70.024 172.377 71.046 178.232 67.789C184.488 64.31 191.124 61.557 197.956 59.605C204.395 57.766 208.836 51.879 208.836 45.182V30H238.836V45.183C238.836 51.881 243.276 57.767 249.717 59.606C256.549 61.557 263.185 64.311 269.441 67.79C275.295 71.045 282.6 70.024 287.337 65.287L298.082 54.542L319.296 75.755L308.549 86.5C303.812 91.237 302.79 98.541 306.046 104.396C309.525 110.652 312.278 117.288 314.23 124.12C316.069 130.559 321.956 135 328.653 135H343.836V166H281.672C292.235 127.719 263.307 90 223.836 90C184.619 90 155.387 127.415 166.036 166H103.836V135H103.835ZM198.463 166C185.92 146.116 200.235 120 223.835 120C247.427 120 261.767 146.139 249.194 166H198.463ZM400.476 311C392.192 311 385.476 317.716 385.476 326V390H341.476C333.192 390 326.476 396.716 326.476 405V482H185.476V398.79C185.476 392.078 181.017 386.184 174.559 384.356C94.7129 361.769 47.2299 276.927 72.0279 196H378.92C382.782 208.596 384.952 221.663 385.384 234.977C385.629 242.531 386.763 239.743 433.499 311H400.476Z" fill="#FB9D10"/>
</svg>
