<svg width="512" height="512" viewBox="0 0 512 512" fill="none" xmlns="http://www.w3.org/2000/svg">
<path d="M466.983 71.2811C441.16 45.1761 406.277 30.7441 368.758 30.6381C330.141 30.5091 291.441 45.1411 260.434 71.1521C225.169 40.0971 193.269 24.9551 163.23 24.9551C121.278 24.9551 82.3551 41.4781 53.8961 71.2171C32.5061 92.6071 17.8501 120.691 11.4971 152.438C9.59506 161.979 15.7771 171.256 25.3191 173.165C34.8491 175.056 44.1371 168.885 46.0461 159.343C51.0251 134.442 62.3511 112.582 79.0741 95.8541C101.092 72.8491 130.984 60.1841 163.231 60.1841C186.594 60.1841 214.895 75.9261 247.048 106.663C250.653 110.286 255.391 112.288 260.388 112.294C260.394 112.294 260.406 112.294 260.411 112.294C265.396 112.294 270.134 110.304 273.745 106.693C299.703 80.7351 334.169 65.8681 368.342 65.8681C368.454 65.8681 368.559 65.8681 368.665 65.8681C397.142 65.9441 422.484 76.3901 441.742 95.8541C464.336 119.452 476.778 150.36 476.778 182.9C476.778 215.464 464.054 247.141 442.224 269.464L260.697 444.941L116.756 305.867C109.763 299.109 98.6131 299.314 91.8491 306.29C85.0911 313.289 85.2851 324.439 92.2781 331.197L248.461 482.096C251.872 485.396 256.288 487.046 260.697 487.046C265.106 487.046 269.522 485.396 272.939 482.102L467.053 294.447C495.618 265.248 512 224.593 512 182.899C512 141.24 496.082 101.672 466.983 71.2811Z" fill="#FB9D10"/>
<path d="M480.294 223.413H338.202C333.352 223.413 328.725 225.403 325.402 228.926L271.988 285.405L210.466 145.85C207.824 139.855 202.07 135.821 195.535 135.381C189.035 134.964 182.759 138.164 179.335 143.748L130.472 223.413H17.615C7.885 223.413 0 231.298 0 241.028C0 250.758 7.885 258.643 17.615 258.643H140.325C146.449 258.643 152.139 255.461 155.339 250.235L191.79 190.815L250.453 323.876C252.831 329.278 257.757 333.124 263.57 334.128C264.568 334.298 265.572 334.386 266.57 334.386C271.373 334.386 276.017 332.425 279.37 328.878L345.789 258.642H480.295C490.024 258.642 497.91 250.756 497.91 241.027C497.908 231.298 490.023 223.413 480.294 223.413Z" fill="#FB9D10"/>
</svg>
