<svg xmlns="http://www.w3.org/2000/svg">
<symbol id="reload" viewBox="0 0 512 512">
        <g>
            <path d="M464.022 232H464C460.848 232.003 457.728 232.626 454.817 233.835C451.906 235.043 449.262 236.813 447.035 239.044C444.808 241.274 443.043 243.922 441.839 246.835C440.635 249.748 440.017 252.869 440.02 256.021C439.99 289.668 430.737 322.663 413.268 351.42C395.799 380.177 370.781 403.595 340.935 419.129C311.088 434.663 277.554 441.719 243.978 439.529C210.402 437.339 178.069 425.988 150.493 406.709C67.393 348.521 47.124 233.573 105.312 150.472C163.5 67.371 278.449 47.1 361.549 105.29C374.121 114.07 385.547 124.387 395.561 136H328.021C321.656 136 315.551 138.529 311.05 143.029C306.55 147.53 304.021 153.635 304.021 160C304.021 166.365 306.55 172.47 311.05 176.971C315.551 181.471 321.656 184 328.021 184H440.021C446.386 184 452.491 181.471 456.992 176.971C461.492 172.47 464.021 166.365 464.021 160V48C464.021 41.6348 461.492 35.5303 456.992 31.0294C452.491 26.5286 446.386 24 440.021 24C433.656 24 427.551 26.5286 423.05 31.0294C418.55 35.5303 416.021 41.6348 416.021 48V87.967C407.599 79.976 398.594 72.6224 389.081 65.967C364.126 48.4934 335.973 36.1061 306.231 29.5125C276.488 22.9189 245.739 22.2481 215.737 27.5384C185.735 32.8286 157.069 43.9763 131.376 60.345C105.682 76.7137 83.4646 97.9828 65.991 122.938C30.7014 173.337 16.8782 235.691 27.5624 296.282C38.2465 356.873 72.5628 410.738 122.962 446.028C161.765 473.36 208.066 488.034 255.529 488.043C269.199 488.036 282.843 486.837 296.305 484.458C350.019 474.982 398.678 446.886 433.738 405.104C468.797 363.321 488.017 310.522 488.021 255.979C488.015 249.618 485.485 243.519 480.984 239.022C476.484 234.526 470.383 232 464.022 232V232Z"/>
        </g>
</symbol>
</svg>
