<svg width="512" height="512" viewBox="0 0 512 512" fill="none" xmlns="http://www.w3.org/2000/svg">
<path d="M329.987 179.6C329.989 179.266 330 178.934 330 178.6C330 87.6191 255.981 13.6001 165 13.6001C74.019 13.6001 0 87.6181 0 178.6V377.41L81.054 320.672C102.711 333.503 126.875 341.115 152 343.074V409.6H369.557L437 498.4L512 399.65V179.6H329.987ZM89.094 290.249L80.533 284.417L30 319.79V178.6C30 104.161 90.561 43.6001 165 43.6001C239.439 43.6001 300 104.161 300 178.6C300 253.039 239.439 313.6 165 313.6C137.763 313.6 111.516 305.526 89.094 290.249ZM482 389.55L437 448.8L384.443 379.6H182V342.729C200.009 340.877 217.168 336.117 233 328.927V339.6H381V309.6H265.195C276.497 300.935 286.65 290.847 295.383 279.6H431V249.6H313.925C319.929 237.057 324.387 223.64 327.067 209.6H482V389.55Z" fill="white"/>
<path d="M165 93.6001C140.187 93.6001 120 113.787 120 138.6H150C150 130.329 156.729 123.6 165 123.6C173.271 123.6 180 130.329 180 138.6C180 146.871 173.271 153.6 165 153.6H150V203.6H180V181.03C197.461 174.839 210 158.156 210 138.6C210 113.787 189.813 93.6001 165 93.6001Z" fill="white"/>
<path d="M180 233.6H150V263.6H180V233.6Z" fill="white"/>
</svg>
