<svg width="512" height="512" viewBox="0 0 512 512" fill="none" xmlns="http://www.w3.org/2000/svg">
<g clip-path="url(#clip0)">
<path d="M0 341.603H118.748V371.743H0V341.603Z" fill="#FB9D10"/>
<path d="M424.204 312.512H406.115L354.841 152.135C322.956 170.304 292.235 182.756 264.392 170.86C228.715 154.436 219.278 115.24 217.535 109.894L152.783 67.5291L27.0322 243.615L286.594 414.331H60.5657V444.471H512V400.31C512 351.898 472.614 312.512 424.204 312.512V312.512ZM107.084 183.381C125.135 211.471 150.984 234.067 187.877 256.09C245.313 289.962 249.982 330.753 247.471 352.527L69.7614 235.645L107.084 183.381ZM481.86 414.331H341.441L274.651 370.402C291.095 308.108 248.601 255.374 203.187 230.129C150.895 199.289 132.559 169.419 126.584 156.078L160.495 108.592L191.954 129.175C210.966 182.745 263.668 226.958 336.874 194.908L347.552 228.308L309.021 240.707L318.253 269.399L356.731 257.017L367.084 289.4L331.844 300.743L341.079 329.433L376.263 318.108L384.11 342.652H424.205C455.997 342.652 481.862 368.517 481.862 400.31V414.331H481.86Z" fill="#FB9D10"/>
</g>
<defs>
<clipPath id="clip0">
<rect width="512" height="512" fill="white"/>
</clipPath>
</defs>
</svg>
