<svg width="485" height="485" viewBox="0 0 485 485" fill="none" xmlns="http://www.w3.org/2000/svg">
<path d="M354.176 91.789L367.489 66.394L340.919 52.464L327.628 77.817C305.897 68.278 282.28 62.273 257.501 60.536V30H305.77V0H179.231V30H227.5V60.537C202.721 62.273 179.104 68.279 157.373 77.818L144.082 52.465L117.512 66.395L130.825 91.79C70.359 129.292 30 196.267 30 272.5C30 389.673 125.327 485 242.5 485C359.673 485 455 389.673 455 272.5C455 196.267 414.641 129.292 354.176 91.789ZM242.5 455C141.869 455 60 373.131 60 272.5C60 171.869 141.869 90 242.5 90C343.131 90 425 171.869 425 272.5C425 373.131 343.131 455 242.5 455Z" fill="white"/>
<path d="M257.5 145H227.5V287.5H370V257.5H257.5V145Z" fill="white"/>
</svg>
